<svg width="31" height="31" viewBox="0 0 31 31" fill="none" xmlns="http://www.w3.org/2000/svg">
<circle cx="15.5" cy="15.5" r="15.5" fill="#262D37"/>
<path fill-rule="evenodd" clip-rule="evenodd" d="M24.95 8.2C25.3967 8.85482 25.6863 9.63151 25.79 10.4533C25.9205 11.6745 25.9907 12.9031 26 14.1333V15.8533C25.9911 17.088 25.921 18.3211 25.79 19.5467C25.6863 20.3684 25.3967 21.1452 24.95 21.8C24.3813 22.4117 23.631 22.7546 22.85 22.76C19.91 23 15.5 23 15.5 23C15.5 23 10.04 23 8.38333 22.7733C7.53028 22.7682 6.70535 22.4241 6.05 21.8C5.60142 21.1413 5.31179 20.3598 5.21 19.5334C5.07937 18.3122 5.00926 17.0835 5 15.8533V14.1333C5.00882 12.8987 5.07893 11.6656 5.21 10.44C5.31375 9.61817 5.60328 8.8415 6.05 8.18666C6.61877 7.57501 7.36903 7.23205 8.15 7.22667C11.09 7 15.5 7 15.5 7C15.5 7 19.91 7 22.85 7.23999C23.631 7.24538 24.3813 7.58835 24.95 8.2ZM20.1667 15.0011L13.1667 11.0006V19.0017L20.1667 15.0011Z" fill="white"/>
</svg>
