<svg width="31" height="31" viewBox="0 0 31 31" fill="none" xmlns="http://www.w3.org/2000/svg">
<circle cx="15.5" cy="15.5" r="15.5" fill="#262D37"/>
<path fill-rule="evenodd" clip-rule="evenodd" d="M11.1785 6.05556C12.2998 6 12.6618 6 15.5117 6C18.3615 6 18.7236 6 19.8565 6.05556C20.7268 6.07344 21.5877 6.23122 22.4027 6.52222C23.8091 7.0517 24.9159 8.12071 25.4511 9.46667C25.7569 10.242 25.9228 11.061 25.9416 11.8889C26 12.9556 26 13.3 26 16.0111C26 17.664 25.9783 18.4208 25.9613 19.0114C25.9505 19.3896 25.9416 19.6996 25.9416 20.1334C25.9228 20.9613 25.7569 21.7803 25.4511 22.5556C24.9052 23.8976 23.79 24.9585 22.3793 25.4778C21.5643 25.7689 20.7034 25.9267 19.8331 25.9445C18.7119 26 18.3498 26 15.5003 26C13.7628 26 12.9671 25.9794 12.3462 25.9633C11.9487 25.953 11.6227 25.9445 11.1668 25.9445C10.2965 25.9267 9.43568 25.7689 8.62069 25.4778C7.20766 24.9561 6.09206 23.8907 5.54894 22.5445C5.24305 21.7692 5.0772 20.9502 5.0584 20.1223C5 19.0555 5 18.7112 5 16C5 13.2889 5 12.9445 5.0584 11.8667C5.0772 11.0387 5.24305 10.2198 5.54894 9.44445C6.09743 8.10021 7.21726 7.03891 8.63237 6.52222C9.44736 6.23122 10.3082 6.07344 11.1785 6.05556ZM19.7638 7.85703C18.6542 7.80148 18.3155 7.80148 15.5124 7.80148V7.8237C13.7832 7.8237 12.9929 7.84466 12.3833 7.86084C12.0005 7.87099 11.689 7.87925 11.261 7.87925C10.595 7.8874 9.93527 8.00389 9.31051 8.2237C8.40756 8.56251 7.69281 9.24247 7.33665 10.1015C7.10561 10.6958 6.98316 11.3234 6.97458 11.957C6.91619 13.0126 6.91619 13.3237 6.91619 16.0015C6.91619 17.6465 6.93823 18.3983 6.95523 18.9783C6.96591 19.3425 6.97458 19.6389 6.97458 20.0459C6.98316 20.6796 7.10561 21.3071 7.33665 21.9015C7.69281 22.7605 8.40756 23.4404 9.31051 23.7792C9.93527 23.999 10.595 24.1156 11.261 24.1237C12.3706 24.1793 12.6976 24.1793 15.5124 24.1793C17.2416 24.1793 18.0319 24.1583 18.6415 24.1422C19.0243 24.132 19.3358 24.1237 19.7638 24.1237C20.4299 24.1156 21.0895 23.999 21.7143 23.7792C22.6172 23.4404 23.332 22.7605 23.6881 21.9015C23.9192 21.3071 24.0417 20.6796 24.0502 20.0459C24.1086 18.9904 24.1086 18.6793 24.1086 16.0015C24.1086 14.3565 24.0865 13.6046 24.0696 13.0247C24.0588 12.6605 24.0502 12.3642 24.0502 11.957C24.0417 11.3234 23.9192 10.6958 23.6881 10.1015C23.332 9.24247 22.6172 8.56251 21.7143 8.2237C21.0909 7.99632 20.4311 7.87229 19.7638 7.85703Z" fill="white"/>
<path fill-rule="evenodd" clip-rule="evenodd" d="M10 16C10 13.2386 12.4624 11 15.5 11C16.9587 11 18.3576 11.5268 19.389 12.4645C20.4205 13.4021 21 14.6739 21 16C21 18.7614 18.5376 21 15.5 21C12.4624 21 10 18.7614 10 16ZM11.9299 16.0008C11.9299 17.7942 13.5289 19.248 15.5013 19.248C16.4485 19.248 17.3569 18.906 18.0267 18.2969C18.6964 17.688 19.0727 16.8621 19.0727 16.0008C19.0727 14.2075 17.4738 12.7536 15.5013 12.7536C13.5289 12.7536 11.9299 14.2075 11.9299 16.0008Z" fill="white"/>
<path fill-rule="evenodd" clip-rule="evenodd" d="M21 12C21.5522 12 22 11.5523 22 11C22 10.4477 21.5522 10 21 10C20.4477 10 20 10.4477 20 11C20 11.5523 20.4477 12 21 12Z" fill="white"/>
</svg>
