<svg width="31" height="31" viewBox="0 0 31 31" fill="none" xmlns="http://www.w3.org/2000/svg">
<circle cx="15.5" cy="15.5" r="15.5" fill="#262D37"/>
<path d="M14.6117 14.0757V17.3413C14.214 17.233 13.7978 17.2182 13.3939 17.298C12.9899 17.3779 12.6084 17.5505 12.2776 17.803C11.9467 18.0554 11.6749 18.3814 11.4822 18.7569C11.2894 19.1323 11.1807 19.5476 11.1639 19.9723C11.1413 20.3379 11.1947 20.7042 11.3204 21.0468C11.4462 21.3894 11.6415 21.7 11.8931 21.9582C12.1448 22.2163 12.4469 22.4158 12.7794 22.5431C13.1118 22.6706 13.4668 22.723 13.8204 22.697C15.7834 22.697 16.4769 21.272 16.4769 19.9355V7H19.6018C20.1333 10.4158 21.7855 11.2085 24 11.5748V14.8476C24 14.8476 21.3729 14.6546 19.6903 13.3436V19.8089C19.6886 22.7344 18.0101 26 13.844 26C9.97788 26 8 22.6155 8 19.7787C8.02466 18.9382 8.22148 18.1125 8.57748 17.3564C8.93347 16.6002 9.44058 15.9306 10.0653 15.3917C10.6901 14.8528 11.4183 14.4569 12.202 14.2301C12.9857 14.0032 13.8069 13.9506 14.6117 14.0757Z" fill="white"/>
</svg>
