<svg width="31" height="31" viewBox="0 0 31 31" fill="none" xmlns="http://www.w3.org/2000/svg">
<path d="M31 15.594C30.9997 12.6136 30.1506 9.69578 28.5533 7.18587C26.9561 4.67597 24.6775 2.6791 21.9873 1.43172C19.2972 0.184317 16.3082 -0.261376 13.3741 0.147396C10.4401 0.556154 7.68384 1.80227 5.43177 3.7382C3.1797 5.67413 1.52609 8.21881 0.666704 11.071C-0.19268 13.9231 -0.221847 16.9633 0.582655 19.8316C1.38716 22.6999 2.99165 25.2763 5.20616 27.2555C7.42065 29.2349 10.1525 30.5344 13.0781 31V20.1025H9.14242V15.594H13.0781V12.1577C13.0781 8.24967 15.3928 6.08965 18.932 6.08965C20.0947 6.10643 21.2546 6.20807 22.4027 6.39377V10.2329H20.4471C19.8584 10.1543 19.2627 10.3141 18.7912 10.6773C18.3195 11.0404 18.0107 11.5771 17.9322 12.1694C17.91 12.3353 17.9066 12.5031 17.9219 12.6698V15.594H22.2167L21.5295 20.1025H17.9128V31C21.5605 30.4216 24.8832 28.552 27.2824 25.7275C29.6818 22.903 31.0002 19.3096 31 15.594Z" fill="#262D37"/>
</svg>
