<svg width="31" height="31" viewBox="0 0 31 31" fill="none" xmlns="http://www.w3.org/2000/svg">
<circle cx="15.5" cy="15.5" r="15.5" fill="#262D37"/>
<path d="M25 14.6651C25 10.4386 20.7384 7 15.5 7C10.2616 7 6 10.4386 6 14.6651C6 18.4543 9.38363 21.6281 13.9444 22.2275C14.2543 22.2939 14.6755 22.4303 14.7814 22.6932C14.8776 22.9322 14.8446 23.3067 14.8126 23.5475C14.8126 23.5475 14.7013 24.2142 14.6772 24.3558C14.6354 24.5949 14.4858 25.2898 15.5 24.8658C16.5142 24.4417 20.9708 21.6627 22.9636 19.3812C24.3402 17.8806 25 16.3543 25 14.6651Z" fill="white"/>
<path d="M21.8234 17H19.1765C19.1297 17 19.0848 16.9833 19.0517 16.9536C19.0186 16.924 19 16.8837 19 16.8417V13.1583C19 13.1163 19.0186 13.076 19.0517 13.0464C19.0848 13.0167 19.1297 13 19.1765 13H21.8234C21.8702 13 21.9151 13.0167 21.9482 13.0464C21.9813 13.076 21.9999 13.1163 21.9999 13.1583V13.7573C21.9999 13.7992 21.9813 13.8395 21.9482 13.8692C21.9151 13.8989 21.8702 13.9155 21.8234 13.9155H20.0261V14.5367H21.8234C21.8702 14.5367 21.9151 14.5534 21.9482 14.583C21.9813 14.6127 21.9999 14.653 21.9999 14.695V15.2995C21.9999 15.3415 21.9813 15.3817 21.9482 15.4114C21.9151 15.4411 21.8702 15.4578 21.8234 15.4578H20.0261V16.0797H21.8234C21.8702 16.0797 21.9151 16.0964 21.9482 16.1261C21.9813 16.1558 21.9999 16.196 21.9999 16.238V16.8362C22.0007 16.8574 21.9968 16.8786 21.9883 16.8985C21.9798 16.9183 21.9669 16.9364 21.9504 16.9517C21.934 16.967 21.9142 16.9791 21.8924 16.9874C21.8706 16.9957 21.8471 17 21.8234 17Z" fill="#262D37"/>
<path d="M11.8234 17C11.8702 17 11.9151 16.9833 11.9483 16.9537C11.9814 16.924 12 16.8837 12 16.8418V16.2437C12 16.2017 11.9814 16.1615 11.9483 16.1318C11.9151 16.1021 11.8702 16.0854 11.8234 16.0854H10.0244V13.1582C10.0244 13.1163 10.0058 13.076 9.9727 13.0463C9.93958 13.0167 9.89465 13 9.84781 13H9.17663C9.12978 13 9.08486 13.0167 9.05173 13.0463C9.01861 13.076 9 13.1163 9 13.1582V16.8394C9 16.8814 9.01861 16.9216 9.05173 16.9513C9.08486 16.981 9.12978 16.9976 9.17663 16.9976H11.826L11.8234 17Z" fill="#262D37"/>
<path d="M13.8247 13H13.1753C13.0785 13 13 13.0721 13 13.1611V16.8389C13 16.9279 13.0785 17 13.1753 17H13.8247C13.9215 17 14 16.9279 14 16.8389V13.1611C14 13.0721 13.9215 13 13.8247 13Z" fill="#262D37"/>
<path d="M17.8638 13H17.3492C17.3131 13 17.2785 13.0166 17.2529 13.046C17.2274 13.0755 17.2131 13.1155 17.2131 13.1572V15.3313L15.7631 13.07C15.7598 13.064 15.7559 13.0584 15.7515 13.0534L15.7434 13.044L15.7359 13.0369H15.7318L15.7243 13.0307H15.7202L15.7127 13.0259H15.708H15.7005H15.6957H15.6875H15.6821H15.6739H15.6685H15.661H15.1361C15.1 13.0259 15.0654 13.0425 15.0399 13.072C15.0143 13.1015 15 13.1414 15 13.1831V16.8428C15 16.8845 15.0143 16.9245 15.0399 16.954C15.0654 16.9834 15.1 17 15.1361 17H15.6515C15.6876 17 15.7222 16.9834 15.7477 16.954C15.7733 16.9245 15.7876 16.8845 15.7876 16.8428V14.6475L17.2396 16.9112C17.2491 16.9272 17.2611 16.9411 17.275 16.9521L17.2832 16.9583H17.2872L17.2941 16.9623H17.3009H17.3056H17.3152C17.3272 16.9657 17.3395 16.9675 17.3519 16.9678H17.8638C17.8999 16.9678 17.9346 16.9512 17.9601 16.9217C17.9856 16.8922 18 16.8523 18 16.8106V13.1603C18.0003 13.1394 17.9971 13.1187 17.9904 13.0992C17.9837 13.0798 17.9738 13.0621 17.9611 13.0471C17.9484 13.0322 17.9333 13.0204 17.9166 13.0123C17.8999 13.0042 17.8819 13 17.8638 13Z" fill="#262D37"/>
</svg>
