<svg xmlns="http://www.w3.org/2000/svg" viewBox="0 0 104 50">
  <path d="M98.58,26.72l-3.07,5.32h-6.13l3.07-5.32h6.13ZM56.2,15.36l5.63-9.75h-29.96s-5.63,9.75-5.63,9.75h29.96ZM26.24,15.36h-11.26S0,41.31,0,41.31h11.26s14.98-25.95,14.98-25.95Z" fill="#29a27e"/>
  <path d="M58.33,17.45h6.14s-13.78,23.86-13.78,23.86h-6.14s13.78-23.86,13.78-23.86ZM81.13,22.77l3.07-5.32h-17.09s0,0,0,0l-8.45,14.59h6.14s4.83,0,4.83,0l-2.29,3.95h-10.95l-3.07,5.32h17.09s5.37-9.27,5.37-9.27h0l3.07-5.32h0s-6.14,0-6.14,0h-4.83l2.29-3.95h10.96ZM89.92,22.77h10.95l3.07-5.32h-10.94,0s-6.14,0-6.14,0h0s0,0,0,0l-1.75,3.03-8.96,15.51h0l-3.07,5.32h17.09l3.07-5.32h0l.88-1.53h-6.13l-.88,1.53h-4.82l7.64-13.22ZM22.59,30.73h12.52s6.26-10.84,6.26-10.84h-12.52s-6.26,10.84-6.26,10.84ZM11.11,10.84h12.52S29.89,0,29.89,0h-12.52s-6.26,10.84-6.26,10.84Z" fill="#fff"/>
  <path d="M0,45.8h3.12v.77H.96v1.09h1.9v.77H.96v1.5H0v-4.13ZM3.83,49.93h.96v-4.13h-.96v4.13ZM8.55,48.6l.92,1.33h-1.03l-.8-1.16s-.03,0-.04,0h-.83v1.16h-.96v-4.13h1.79c.37,0,.69.06.95.18.27.12.47.29.62.52.14.22.22.49.22.8s-.07.58-.22.8c-.15.22-.35.39-.62.51,0,0,0,0,0,0ZM7.55,46.58h-.77v1.43h.77c.29,0,.51-.06.66-.19.15-.13.22-.3.22-.53s-.07-.4-.22-.53c-.15-.12-.37-.19-.66-.19ZM12.84,47.85c-.14-.08-.3-.15-.47-.21-.17-.05-.34-.1-.51-.14-.17-.04-.33-.07-.47-.11-.14-.04-.26-.09-.34-.16-.09-.07-.13-.16-.13-.27,0-.09.03-.16.08-.24.05-.07.14-.13.25-.17.11-.04.27-.06.45-.06s.37.03.57.08c.2.05.39.13.57.24l.3-.72c-.19-.12-.41-.21-.66-.27-.25-.06-.51-.09-.77-.09-.39,0-.71.06-.97.17s-.45.27-.57.47-.19.41-.19.65c0,.22.04.4.13.54.08.14.2.26.34.35.14.09.3.16.47.21.17.05.34.1.51.14.17.04.33.08.47.12.14.04.26.09.34.16.09.06.13.15.13.26,0,.09-.03.16-.08.23-.05.06-.14.12-.26.16-.12.04-.27.06-.46.06-.25,0-.49-.04-.74-.12-.24-.08-.45-.18-.62-.31l-.32.72c.18.14.43.26.73.34.3.09.62.13.95.13.39,0,.71-.06.97-.18.26-.12.45-.27.58-.47.13-.19.19-.4.19-.64,0-.21-.04-.39-.13-.53-.09-.14-.2-.26-.34-.34ZM13.56,46.58h1.32v3.35h.95v-3.35h1.32v-.78h-3.6v.78ZM19.46,49.93h.96v-4.13h-.96v4.13ZM24.29,48.31l-2.05-2.5h-.79v4.13h.94v-2.5l2.05,2.5h.79v-4.13h-.94v2.5ZM25.8,46.58h1.32v3.35h.95v-3.35h1.32v-.78h-3.6v.78ZM30.92,48.21h1.92v-.75h-1.92v-.89h2.17v-.77h-3.12v4.13h3.19v-.77h-2.25v-.95ZM36.72,48.6l.92,1.33h-1.03l-.8-1.16s-.03,0-.04,0h-.83v1.16h-.96v-4.13h1.79c.37,0,.69.06.95.18.27.12.47.29.62.52.15.22.22.49.22.8s-.07.58-.22.8c-.15.22-.35.39-.62.51,0,0,0,0,0,0ZM35.72,46.58h-.77v1.43h.77c.29,0,.51-.06.66-.19.15-.13.22-.3.22-.53s-.07-.4-.22-.53c-.15-.12-.37-.19-.66-.19ZM41.01,47.85c-.14-.08-.3-.15-.47-.21-.17-.05-.34-.1-.51-.14-.17-.04-.33-.07-.47-.11-.14-.04-.26-.09-.34-.16-.09-.07-.13-.16-.13-.27,0-.09.03-.16.08-.24.05-.07.14-.13.25-.17.11-.04.27-.06.45-.06s.37.03.57.08c.2.05.39.13.57.24l.3-.72c-.19-.12-.41-.21-.66-.27-.25-.06-.51-.09-.77-.09-.39,0-.71.06-.97.17-.26.12-.45.27-.57.47s-.19.41-.19.65c0,.22.04.4.13.54s.2.26.34.35c.14.09.3.16.47.21.17.05.34.1.51.14.17.04.32.08.47.12.14.04.26.09.34.16.09.06.13.15.13.26,0,.09-.03.16-.08.23-.05.06-.14.12-.26.16-.12.04-.27.06-.46.06-.25,0-.49-.04-.74-.12-.24-.08-.45-.18-.62-.31l-.32.72c.18.14.43.26.73.34.3.09.62.13.95.13.39,0,.71-.06.97-.18.26-.12.45-.27.58-.47.13-.19.19-.4.19-.64,0-.21-.04-.39-.13-.53-.09-.14-.2-.26-.34-.34ZM41.73,46.58h1.32v3.35h.95v-3.35h1.32v-.78h-3.6v.78ZM46.85,48.21h1.92v-.75h-1.92v-.89h2.17v-.77h-3.12v4.13h3.19v-.77h-2.25v-.95ZM50.87,45.8h-.96v4.13h3.02v-.78h-2.06v-3.35ZM54.49,45.8h-.96v4.13h3.02v-.78h-2.06v-3.35ZM59.38,45.8l1.85,4.13h-1l-.37-.88h-1.91l-.37.88h-.98l1.83-4.13h.94ZM59.56,48.32l-.65-1.57-.65,1.57h1.31ZM64.46,48.6l.92,1.33h-1.03l-.8-1.16s-.03,0-.04,0h-.83v1.16h-.96v-4.13h1.79c.37,0,.69.06.95.18.27.12.47.29.62.52.15.22.22.49.22.8s-.07.58-.22.8c-.15.22-.35.39-.62.51,0,0,0,0,0,0ZM63.46,46.58h-.77v1.43h.77c.29,0,.51-.06.66-.19.15-.13.22-.3.22-.53s-.07-.4-.22-.53c-.15-.12-.37-.19-.66-.19ZM68.92,46.91c.12-.12.26-.21.43-.27.16-.06.35-.1.54-.1.21,0,.41.04.58.11.18.08.34.2.5.36l.61-.57c-.2-.23-.45-.41-.74-.53-.29-.12-.62-.18-.99-.18-.33,0-.63.05-.91.16-.28.1-.51.25-.72.45-.2.19-.36.42-.47.68-.11.26-.17.54-.17.85s.06.6.17.85c.11.26.27.49.47.68.2.19.44.34.71.45.28.1.58.16.9.16.29,0,.59-.04.88-.13.29-.09.56-.22.78-.39v-1.67h-.87v1.21c-.06.03-.13.07-.19.09-.18.06-.36.09-.55.09s-.38-.03-.54-.1c-.16-.07-.3-.16-.42-.28-.12-.12-.21-.26-.28-.42-.06-.16-.1-.34-.1-.53s.03-.38.1-.54c.06-.16.16-.3.28-.42ZM75.18,48.6l.92,1.33h-1.03l-.8-1.16s-.03,0-.04,0h-.83v1.16h-.96v-4.13h1.79c.37,0,.69.06.95.18.27.12.47.29.62.52.15.22.22.49.22.8s-.07.58-.22.8c-.15.22-.35.39-.62.51,0,0,0,0,0,0ZM74.18,46.58h-.77v1.43h.77c.29,0,.51-.06.66-.19.15-.13.22-.3.22-.53s-.07-.4-.22-.53c-.15-.12-.37-.19-.66-.19ZM80.92,47.01c.11.26.17.54.17.85s-.06.59-.17.85c-.11.26-.27.49-.47.68-.2.19-.44.34-.72.45-.27.1-.57.16-.89.16s-.63-.05-.9-.16c-.28-.11-.51-.26-.72-.45-.2-.19-.36-.42-.47-.68-.11-.26-.17-.54-.17-.85s.06-.59.17-.85c.11-.26.27-.48.47-.67.2-.19.44-.34.72-.45.27-.11.57-.16.9-.16s.63.05.9.16c.27.1.51.25.72.45.2.19.36.42.47.68ZM80.13,47.87c0-.2-.03-.37-.1-.53-.06-.16-.16-.3-.27-.42-.12-.12-.25-.21-.41-.28-.16-.06-.33-.1-.51-.1s-.36.03-.51.1c-.16.06-.29.16-.41.28-.12.12-.21.26-.27.42-.06.16-.1.34-.1.53s.03.37.1.53c.06.16.16.3.27.42.12.12.25.21.41.28.16.06.33.1.51.1s.35-.03.51-.1c.16-.06.29-.16.41-.28.12-.12.21-.26.27-.42.06-.16.1-.34.1-.53ZM84.63,48.08c0,.39-.08.67-.24.85-.16.17-.39.26-.68.26s-.51-.09-.67-.26c-.16-.17-.24-.46-.24-.85v-2.28h-.96v2.3c0,.61.17,1.08.49,1.4.33.33.79.49,1.37.49s1.04-.16,1.37-.49c.33-.33.5-.79.5-1.4v-2.3h-.94v2.28ZM90.15,47.29c0,.31-.07.58-.22.8-.15.22-.35.39-.62.52-.27.12-.59.18-.95.18h-.83v1.14h-.96v-4.13h1.79c.37,0,.69.06.95.18.27.12.47.29.62.52.15.22.22.49.22.8ZM89.19,47.29c0-.23-.07-.4-.22-.53-.15-.12-.37-.19-.66-.19h-.77v1.43h.77c.29,0,.51-.06.66-.19.15-.13.22-.3.22-.53Z" fill="#fff"/>
  <rect width="104" height="50" fill="none"/>
</svg>