<svg width="1083" height="366" viewBox="0 0 1083 366" fill="none" xmlns="http://www.w3.org/2000/svg">
<mask id="path-1-outside-1_109_898" maskUnits="userSpaceOnUse" x="-0.220703" y="0" width="1083" height="366" fill="black">
<rect fill="white" x="-0.220703" width="1083" height="366"/>
<path d="M241 7.49998V85.5H100V147.5H204V222H100V360H2V7.49998H241ZM380.273 7.49998V360H282.273V7.49998H380.273ZM569.082 363.5C528.082 363.5 494.415 353.833 468.082 334.5C441.749 314.833 427.582 286.833 425.582 250.5H530.082C531.082 262.833 534.749 271.833 541.082 277.5C547.415 283.167 555.582 286 565.582 286C574.582 286 581.915 283.833 587.582 279.5C593.582 274.833 596.582 268.5 596.582 260.5C596.582 250.167 591.749 242.167 582.082 236.5C572.415 230.833 556.749 224.5 535.082 217.5C512.082 209.833 493.415 202.5 479.082 195.5C465.082 188.167 452.749 177.667 442.082 164C431.749 150 426.582 131.833 426.582 109.5C426.582 86.8333 432.249 67.5 443.582 51.5C454.915 35.1667 470.582 22.8333 490.582 14.5C510.582 6.16665 533.249 1.99999 558.582 1.99999C599.582 1.99999 632.249 11.6667 656.582 31C681.249 50 694.415 76.8333 696.082 111.5H589.582C589.249 100.833 585.915 92.8333 579.582 87.5C573.582 82.1666 565.749 79.5 556.082 79.5C548.749 79.5 542.749 81.6666 538.082 86C533.415 90.3333 531.082 96.5 531.082 104.5C531.082 111.167 533.582 117 538.582 122C543.915 126.667 550.415 130.833 558.082 134.5C565.749 137.833 577.082 142.167 592.082 147.5C614.415 155.167 632.749 162.833 647.082 170.5C661.749 177.833 674.249 188.333 684.582 202C695.249 215.333 700.582 232.333 700.582 253C700.582 274 695.249 292.833 684.582 309.5C674.249 326.167 659.082 339.333 639.082 349C619.415 358.667 596.082 363.5 569.082 363.5ZM971.141 123.5C965.474 114.167 957.641 107 947.641 102C937.974 97 926.474 94.5 913.141 94.5C888.474 94.5 868.974 102.5 854.641 118.5C840.641 134.5 833.641 156 833.641 183C833.641 213.333 841.141 236.5 856.141 252.5C871.474 268.167 893.641 276 922.641 276C956.974 276 981.474 260.5 996.141 229.5H897.641V159H1080.64V254C1072.97 272.667 1061.64 290.167 1046.64 306.5C1031.97 322.833 1013.31 336.333 990.641 347C967.974 357.333 942.141 362.5 913.141 362.5C877.807 362.5 846.474 355 819.141 340C792.141 324.667 771.141 303.5 756.141 276.5C741.474 249.167 734.141 218 734.141 183C734.141 148.333 741.474 117.5 756.141 90.5C771.141 63.1666 792.141 42 819.141 27C846.141 11.6667 877.307 3.99999 912.641 3.99999C956.974 3.99999 993.641 14.6667 1022.64 36C1051.64 57.3333 1069.64 86.5 1076.64 123.5H971.141Z"/>
</mask>
<path d="M241 7.49998H243V5.49998H241V7.49998ZM241 85.5V87.5H243V85.5H241ZM100 85.5V83.5H98V85.5H100ZM100 147.5H98V149.5H100V147.5ZM204 147.5H206V145.5H204V147.5ZM204 222V224H206V222H204ZM100 222V220H98V222H100ZM100 360V362H102V360H100ZM2 360H8.64267e-07V362H2V360ZM2 7.49998V5.49998H8.64267e-07V7.49998H2ZM241 7.49998H239V85.5H241H243V7.49998H241ZM241 85.5V83.5H100V85.5V87.5H241V85.5ZM100 85.5H98V147.5H100H102V85.5H100ZM100 147.5V149.5H204V147.5V145.5H100V147.5ZM204 147.5H202V222H204H206V147.5H204ZM204 222V220H100V222V224H204V222ZM100 222H98V360H100H102V222H100ZM100 360V358H2V360V362H100V360ZM2 360H4V7.49998H2H8.64267e-07V360H2ZM2 7.49998V9.49998H241V7.49998V5.49998H2V7.49998ZM380.273 7.49998H382.273V5.49998H380.273V7.49998ZM380.273 360V362H382.273V360H380.273ZM282.273 360H280.273V362H282.273V360ZM282.273 7.49998V5.49998H280.273V7.49998H282.273ZM380.273 7.49998H378.273V360H380.273H382.273V7.49998H380.273ZM380.273 360V358H282.273V360V362H380.273V360ZM282.273 360H284.273V7.49998H282.273H280.273V360H282.273ZM282.273 7.49998V9.49998H380.273V7.49998V5.49998H282.273V7.49998ZM468.082 334.5L466.885 336.102L466.892 336.107L466.898 336.112L468.082 334.5ZM425.582 250.5V248.5H423.469L423.585 250.61L425.582 250.5ZM530.082 250.5L532.075 250.338L531.926 248.5H530.082V250.5ZM541.082 277.5L539.748 278.99L539.748 278.99L541.082 277.5ZM587.582 279.5L588.797 281.089L588.803 281.084L588.81 281.079L587.582 279.5ZM582.082 236.5L583.093 234.775L583.093 234.775L582.082 236.5ZM535.082 217.5L534.45 219.397L534.458 219.4L534.467 219.403L535.082 217.5ZM479.082 195.5L478.154 197.272L478.179 197.285L478.204 197.297L479.082 195.5ZM442.082 164L440.473 165.188L440.489 165.209L440.505 165.231L442.082 164ZM443.582 51.5L445.214 52.656L445.22 52.6481L445.225 52.6401L443.582 51.5ZM490.582 14.5L489.813 12.6538L489.813 12.6538L490.582 14.5ZM656.582 31L655.338 32.5659L655.35 32.5752L655.362 32.5844L656.582 31ZM696.082 111.5V113.5H698.181L698.08 111.404L696.082 111.5ZM589.582 111.5L587.583 111.562L587.644 113.5H589.582V111.5ZM579.582 87.5L578.253 88.9948L578.273 89.0126L578.294 89.0298L579.582 87.5ZM538.082 86L539.443 87.4656L539.443 87.4656L538.082 86ZM538.582 122L537.168 123.414L537.215 123.461L537.265 123.505L538.582 122ZM558.082 134.5L557.219 136.304L557.252 136.32L557.285 136.334L558.082 134.5ZM592.082 147.5L591.412 149.384L591.422 149.388L591.433 149.392L592.082 147.5ZM647.082 170.5L646.139 172.264L646.163 172.277L646.188 172.289L647.082 170.5ZM684.582 202L682.987 203.206L683.003 203.228L683.02 203.249L684.582 202ZM684.582 309.5L682.898 308.422L682.89 308.434L682.882 308.446L684.582 309.5ZM639.082 349L638.212 347.199L638.2 347.205L639.082 349ZM569.082 363.5V361.5C528.398 361.5 495.177 351.911 469.266 332.888L468.082 334.5L466.898 336.112C493.654 355.755 527.766 365.5 569.082 365.5V363.5ZM468.082 334.5L469.279 332.898C443.475 313.626 429.55 286.204 427.579 250.39L425.582 250.5L423.585 250.61C425.614 287.463 440.023 316.041 466.885 336.102L468.082 334.5ZM425.582 250.5V252.5H530.082V250.5V248.5H425.582V250.5ZM530.082 250.5L528.089 250.662C529.111 263.275 532.889 272.853 539.748 278.99L541.082 277.5L542.416 276.01C536.608 270.813 533.053 262.392 532.075 250.338L530.082 250.5ZM541.082 277.5L539.748 278.99C546.512 285.042 555.182 288 565.582 288V286V284C555.982 284 548.319 281.291 542.416 276.01L541.082 277.5ZM565.582 286V288C574.905 288 582.699 285.752 588.797 281.089L587.582 279.5L586.367 277.911C581.132 281.915 574.259 284 565.582 284V286ZM587.582 279.5L588.81 281.079C595.326 276.011 598.582 269.08 598.582 260.5H596.582H594.582C594.582 267.92 591.838 273.656 586.354 277.921L587.582 279.5ZM596.582 260.5H598.582C598.582 249.387 593.31 240.763 583.093 234.775L582.082 236.5L581.071 238.225C590.188 243.57 594.582 250.946 594.582 260.5H596.582ZM582.082 236.5L583.093 234.775C573.23 228.993 557.391 222.606 535.697 215.597L535.082 217.5L534.467 219.403C556.107 226.394 571.601 232.674 581.071 238.225L582.082 236.5ZM535.082 217.5L535.714 215.603C512.76 207.951 494.184 200.65 479.96 193.703L479.082 195.5L478.204 197.297C492.647 204.35 511.404 211.715 534.45 219.397L535.082 217.5ZM479.082 195.5L480.01 193.728C466.286 186.539 454.167 176.234 443.659 162.769L442.082 164L440.505 165.231C451.33 179.1 463.878 189.794 478.154 197.272L479.082 195.5ZM442.082 164L443.691 162.812C433.676 149.243 428.582 131.528 428.582 109.5H426.582H424.582C424.582 132.139 429.822 150.757 440.473 165.188L442.082 164ZM426.582 109.5H428.582C428.582 87.1807 434.156 68.2674 445.214 52.656L443.582 51.5L441.95 50.3439C430.341 66.7326 424.582 86.486 424.582 109.5H426.582ZM443.582 51.5L445.225 52.6401C456.321 36.6489 471.671 24.5462 491.351 16.3461L490.582 14.5L489.813 12.6538C469.493 21.1204 453.51 33.6844 441.939 50.3598L443.582 51.5ZM490.582 14.5L491.351 16.3461C511.07 8.13005 533.469 3.99999 558.582 3.99999V1.99999V-1.0252e-05C533.029 -1.0252e-05 510.094 4.20326 489.813 12.6538L490.582 14.5ZM558.582 1.99999V3.99999C599.275 3.99999 631.457 13.5921 655.338 32.5659L656.582 31L657.826 29.4341C633.04 9.74117 599.889 -1.0252e-05 558.582 -1.0252e-05V1.99999ZM656.582 31L655.362 32.5844C679.507 51.1826 692.442 77.4399 694.084 111.596L696.082 111.5L698.08 111.404C696.389 76.2267 682.991 48.8174 657.802 29.4155L656.582 31ZM696.082 111.5V109.5H589.582V111.5V113.5H696.082V111.5ZM589.582 111.5L591.581 111.438C591.235 100.378 587.756 91.7686 580.87 85.9702L579.582 87.5L578.294 89.0298C584.075 93.898 587.262 101.289 587.583 111.562L589.582 111.5ZM579.582 87.5L580.911 86.0052C574.473 80.2828 566.133 77.5 556.082 77.5V79.5V81.5C565.364 81.5 572.691 84.0505 578.253 88.9948L579.582 87.5ZM556.082 79.5V77.5C548.326 77.5 541.814 79.8056 536.721 84.5344L538.082 86L539.443 87.4656C543.684 83.5277 549.172 81.5 556.082 81.5V79.5ZM538.082 86L536.721 84.5344C531.547 89.3385 529.082 96.0959 529.082 104.5H531.082H533.082C533.082 96.9041 535.283 91.3281 539.443 87.4656L538.082 86ZM531.082 104.5H529.082C529.082 111.732 531.818 118.064 537.168 123.414L538.582 122L539.996 120.586C535.346 115.936 533.082 110.602 533.082 104.5H531.082ZM538.582 122L537.265 123.505C542.759 128.313 549.42 132.574 557.219 136.304L558.082 134.5L558.945 132.696C551.411 129.093 545.071 125.021 539.899 120.495L538.582 122ZM558.082 134.5L557.285 136.334C565.015 139.695 576.4 144.047 591.412 149.384L592.082 147.5L592.752 145.616C577.764 140.287 566.482 135.971 558.879 132.666L558.082 134.5ZM592.082 147.5L591.433 149.392C613.706 157.038 631.932 164.664 646.139 172.264L647.082 170.5L648.025 168.736C633.566 161.002 615.125 153.296 592.731 145.608L592.082 147.5ZM647.082 170.5L646.188 172.289C660.566 179.478 672.83 189.774 682.987 203.206L684.582 202L686.177 200.794C675.667 186.893 662.931 176.188 647.976 168.711L647.082 170.5ZM684.582 202L683.02 203.249C693.347 216.158 698.582 232.689 698.582 253H700.582H702.582C702.582 231.978 697.15 214.509 686.144 200.751L684.582 202ZM700.582 253H698.582C698.582 273.642 693.345 292.097 682.898 308.422L684.582 309.5L686.267 310.578C697.152 293.57 702.582 274.358 702.582 253H700.582ZM684.582 309.5L682.882 308.446C672.775 324.749 657.917 337.675 638.212 347.199L639.082 349L639.952 350.801C660.248 340.991 675.723 327.585 686.282 310.554L684.582 309.5ZM639.082 349L638.2 347.205C618.864 356.709 595.846 361.5 569.082 361.5V363.5V365.5C596.318 365.5 619.967 360.624 639.964 350.795L639.082 349ZM971.141 123.5L969.431 124.538L970.015 125.5H971.141V123.5ZM947.641 102L946.722 103.776L946.734 103.783L946.746 103.789L947.641 102ZM854.641 118.5L853.151 117.165L853.143 117.174L853.135 117.183L854.641 118.5ZM856.141 252.5L854.682 253.868L854.696 253.884L854.711 253.899L856.141 252.5ZM996.141 229.5L997.949 230.355L999.299 227.5H996.141V229.5ZM897.641 229.5H895.641V231.5H897.641V229.5ZM897.641 159V157H895.641V159H897.641ZM1080.64 159H1082.64V157H1080.64V159ZM1080.64 254L1082.49 254.76L1082.64 254.395V254H1080.64ZM1046.64 306.5L1045.17 305.147L1045.16 305.155L1045.15 305.164L1046.64 306.5ZM990.641 347L991.47 348.82L991.481 348.815L991.492 348.81L990.641 347ZM819.141 340L818.153 341.739L818.166 341.746L818.178 341.753L819.141 340ZM756.141 276.5L754.378 277.446L754.385 277.459L754.392 277.471L756.141 276.5ZM756.141 90.5L754.387 89.5378L754.383 89.5453L756.141 90.5ZM819.141 27L820.112 28.7483L820.12 28.7438L820.128 28.7391L819.141 27ZM1022.64 36L1021.46 37.611L1021.46 37.611L1022.64 36ZM1076.64 123.5V125.5H1079.05L1078.61 123.128L1076.64 123.5ZM971.141 123.5L972.85 122.462C966.983 112.799 958.864 105.375 948.535 100.211L947.641 102L946.746 103.789C956.418 108.625 963.965 115.535 969.431 124.538L971.141 123.5ZM947.641 102L948.559 100.224C938.552 95.0472 926.723 92.5 913.141 92.5V94.5V96.5C926.225 96.5 937.396 98.9528 946.722 103.776L947.641 102ZM913.141 94.5V92.5C887.999 92.5 867.922 100.677 853.151 117.165L854.641 118.5L856.13 119.834C870.026 104.323 888.949 96.5 913.141 96.5V94.5ZM854.641 118.5L853.135 117.183C838.738 133.638 831.641 155.65 831.641 183H833.641H835.641C835.641 156.35 842.544 135.362 856.146 119.817L854.641 118.5ZM833.641 183H831.641C831.641 213.645 839.22 237.375 854.682 253.868L856.141 252.5L857.6 251.132C843.062 235.625 835.641 213.022 835.641 183H833.641ZM856.141 252.5L854.711 253.899C870.531 270.062 893.283 278 922.641 278V276V274C893.998 274 872.417 266.271 857.57 251.101L856.141 252.5ZM922.641 276V278C940.115 278 955.21 274.052 967.835 266.065C980.46 258.078 990.483 246.134 997.949 230.355L996.141 229.5L994.333 228.645C987.131 243.866 977.571 255.172 965.696 262.685C953.821 270.198 939.499 274 922.641 274V276ZM996.141 229.5V227.5H897.641V229.5V231.5H996.141V229.5ZM897.641 229.5H899.641V159H897.641H895.641V229.5H897.641ZM897.641 159V161H1080.64V159V157H897.641V159ZM1080.64 159H1078.64V254H1080.64H1082.64V159H1080.64ZM1080.64 254L1078.79 253.24C1071.22 271.668 1060.02 288.971 1045.17 305.147L1046.64 306.5L1048.11 307.853C1063.26 291.363 1074.73 273.665 1082.49 254.76L1080.64 254ZM1046.64 306.5L1045.15 305.164C1030.69 321.272 1012.25 334.621 989.789 345.19L990.641 347L991.492 348.81C1014.37 338.045 1033.26 324.394 1048.13 307.836L1046.64 306.5ZM990.641 347L989.811 345.18C967.444 355.377 941.901 360.5 913.141 360.5V362.5V364.5C942.38 364.5 968.504 359.29 991.47 348.82L990.641 347ZM913.141 362.5V360.5C878.098 360.5 847.104 353.064 820.103 338.247L819.141 340L818.178 341.753C845.844 356.936 877.516 364.5 913.141 364.5V362.5ZM819.141 340L820.128 338.261C793.446 323.108 772.71 302.206 757.889 275.529L756.141 276.5L754.392 277.471C769.572 304.794 790.836 326.226 818.153 341.739L819.141 340ZM756.141 276.5L757.903 275.554C743.411 248.547 736.141 217.713 736.141 183H734.141H732.141C732.141 218.287 739.537 249.786 754.378 277.446L756.141 276.5ZM734.141 183H736.141C736.141 148.623 743.41 118.126 757.898 91.4546L756.141 90.5L754.383 89.5453C739.538 116.874 732.141 148.043 732.141 183H734.141ZM756.141 90.5L757.894 91.4622C772.714 64.456 793.445 43.5634 820.112 28.7483L819.141 27L818.169 25.2517C790.836 40.4366 769.567 61.8772 754.387 89.5378L756.141 90.5ZM819.141 27L820.128 28.7391C846.788 13.5992 877.605 5.99999 912.641 5.99999V3.99999V1.99999C877.01 1.99999 845.494 9.73409 818.153 25.2609L819.141 27ZM912.641 3.99999V5.99999C956.648 5.99999 992.872 16.584 1021.46 37.611L1022.64 36L1023.83 34.389C994.409 12.7493 957.3 1.99999 912.641 1.99999V3.99999ZM1022.64 36L1021.46 37.611C1050.03 58.6299 1067.76 87.3434 1074.68 123.872L1076.64 123.5L1078.61 123.128C1071.52 85.6565 1053.25 56.0367 1023.83 34.389L1022.64 36ZM1076.64 123.5V121.5H971.141V123.5V125.5H1076.64V123.5Z" fill="url(#paint0_radial_109_898)" mask="url(#path-1-outside-1_109_898)"/>
<defs>
<radialGradient id="paint0_radial_109_898" cx="0" cy="0" r="1" gradientUnits="userSpaceOnUse" gradientTransform="translate(535.807 -215) rotate(90) scale(511.5 765.886)">
<stop stop-color="#00FFB3"/>
<stop offset="1" stop-color="#00FFB3" stop-opacity="0"/>
</radialGradient>
</defs>
</svg>
